<svg xmlns="http://www.w3.org/2000/svg" xml:space="preserve" style="fill-rule:evenodd;clip-rule:evenodd" viewBox="0 0 24 24">
  <path d="M.367-.185H.242v-.032a.2.2 0 0 1 .02-.1.3.3 0 0 1 .08-.088 1 1 0 0 0 .072-.064.1.1 0 0 0 .018-.052A.1.1 0 0 0 .4-.59a.13.13 0 0 0-.087-.029.13.13 0 0 0-.087.03.16.16 0 0 0-.048.091L.052-.514a.2.2 0 0 1 .074-.148.26.26 0 0 1 .182-.061q.117 0 .188.062a.2.2 0 0 1 .069.143.16.16 0 0 1-.025.086.6.6 0 0 1-.11.111.2.2 0 0 0-.054.058.2.2 0 0 0-.009.078M.242 0v-.137h.137V0z" style="fill:currentColor;fill-rule:nonzero" transform="translate(6.974 16.14)scale(10.64669)"/>
  <circle cx="46" cy="18" r="6" style="fill:none;stroke:currentColor;stroke-width:2px" transform="translate(-8.702 -6.336)scale(.59148)"/>
  <path d="M41.529 14A5.98 5.98 0 0 0 40 18c0 3.311 2.689 6 6 6v22c0 2.208-1.792 4-4 4H22c-2.208 0-4-1.792-4-4V18c0-2.208 1.792-4 4-4z" style="fill:none;stroke:currentColor;stroke-width:2px" transform="translate(-8.702 -6.336)scale(.59148)"/>
  <path d="M46 18v-3m0 3 3 2" style="fill:none;fill-rule:nonzero;stroke:currentColor;stroke-width:2px;stroke-linecap:round" transform="translate(-8.702 -6.336)scale(.59148)"/>
</svg>
